<svg width="25" height="25" viewBox="0 0 25 25" fill="none" xmlns="http://www.w3.org/2000/svg">
<path d="M0.759155 24.0652L2.42982 17.8534C1.08248 15.4335 0.65443 12.6098 1.22418 9.90033C1.79394 7.19082 3.32331 4.77733 5.53163 3.1027C7.73995 1.42813 10.4791 0.604724 13.2465 0.783605C16.0139 0.962486 18.6238 2.1317 20.5973 4.07665C22.5709 6.02161 23.7757 8.61185 23.9907 11.3721C24.2057 14.1323 23.4164 16.8774 21.7678 19.1035C20.1191 21.3296 17.7215 22.8876 15.0152 23.4914C12.3088 24.0953 9.47505 23.7045 7.03399 22.3908L0.759155 24.0652ZM7.33651 20.0663L7.72459 20.2961C9.4927 21.3424 11.5578 21.7753 13.5982 21.5275C15.6385 21.2797 17.5395 20.365 19.0047 18.9261C20.47 17.487 21.4173 15.6046 21.699 13.572C21.9808 11.5394 21.5811 9.4708 20.5623 7.68866C19.5435 5.90651 17.9628 4.51086 16.0665 3.7192C14.1702 2.92758 12.0649 2.78441 10.0786 3.31205C8.09237 3.83964 6.33672 5.00844 5.08526 6.63622C3.83381 8.26401 3.15684 10.2593 3.15989 12.3113C3.15826 14.0127 3.62955 15.6812 4.52141 17.1311L4.76478 17.5316L3.83081 20.9987L7.33651 20.0663Z" fill="white"/>
<path fill-rule="evenodd" clip-rule="evenodd" d="M16.7547 13.9065C16.5272 13.7232 16.2608 13.5943 15.9759 13.5295C15.6909 13.4646 15.3949 13.4655 15.1104 13.5322C14.6829 13.7095 14.4066 14.3792 14.1304 14.7141C14.0721 14.7944 13.9865 14.8507 13.8896 14.8725C13.7927 14.8942 13.6913 14.8799 13.6042 14.8323C12.039 14.2203 10.727 13.098 9.88141 11.6476C9.80924 11.5571 9.77511 11.4421 9.78615 11.327C9.79724 11.2119 9.85258 11.1055 9.94057 11.0303C10.2487 10.7258 10.4749 10.3487 10.5983 9.93374C10.6257 9.47608 10.5207 9.02021 10.2958 8.62043C10.1219 8.06004 9.79093 7.56104 9.34208 7.18242C9.11055 7.07846 8.8538 7.04362 8.6029 7.08207C8.352 7.12052 8.11758 7.23059 7.92792 7.39909C7.59869 7.68265 7.33741 8.03634 7.16326 8.43408C6.98906 8.83187 6.90651 9.26353 6.92162 9.69733C6.92258 9.94096 6.95356 10.1836 7.01368 10.4197C7.16641 10.9869 7.40129 11.5289 7.71089 12.0284C7.93422 12.4111 8.17795 12.7815 8.44096 13.1382C9.29569 14.3096 10.3701 15.3042 11.6047 16.0668C12.2242 16.4543 12.8862 16.7694 13.5778 17.0058C14.2963 17.3309 15.0896 17.4557 15.8733 17.3669C16.3199 17.2995 16.743 17.1235 17.1055 16.8544C17.4679 16.5853 17.7585 16.2314 17.9518 15.8238C18.0653 15.5777 18.0998 15.3024 18.0504 15.0359C17.9321 14.4909 17.2019 14.1691 16.7547 13.9065Z" fill="white"/>
</svg>
