<svg width="25" height="23" viewBox="0 0 25 23" fill="none" xmlns="http://www.w3.org/2000/svg">
<path d="M12.5578 0.233612C9.35999 0.233612 8.95969 0.246563 7.70356 0.298365C6.44742 0.354485 5.5962 0.540111 4.8462 0.812076C4.0732 1.09267 3.41522 1.47256 2.75725 2.08556C2.09927 2.69856 1.69897 3.31587 1.39989 4.04543C1.11001 4.74908 0.912159 5.55202 0.852343 6.72622C0.792528 7.90473 0.783325 8.2803 0.783325 11.2805C0.783325 14.2808 0.797129 14.6564 0.852343 15.8349C0.912159 17.0091 1.11001 17.812 1.39989 18.5157C1.69897 19.2409 2.10387 19.8582 2.75725 20.4755C3.41062 21.0885 4.06859 21.4684 4.8462 21.749C5.5962 22.021 6.45202 22.2066 7.70356 22.2627C8.95969 22.3188 9.35999 22.3275 12.5578 22.3275C15.7557 22.3275 16.156 22.3145 17.4121 22.2627C18.6637 22.2066 19.5195 22.021 20.2695 21.749C21.0425 21.4684 21.7005 21.0885 22.3584 20.4755C23.0118 19.8625 23.4167 19.2452 23.7158 18.5157C24.0057 17.812 24.2035 17.0091 24.2633 15.8349C24.3232 14.6564 24.3324 14.2808 24.3324 11.2805C24.3324 8.2803 24.3186 7.90473 24.2633 6.72622C24.2035 5.55202 24.0057 4.74908 23.7158 4.04543C23.4167 3.32019 23.0118 2.70287 22.3584 2.08556C21.7051 1.47256 21.0471 1.09267 20.2695 0.812076C19.5195 0.540111 18.6637 0.354485 17.4121 0.298365C16.156 0.246563 15.7557 0.233612 12.5578 0.233612ZM12.5578 2.2237C15.7005 2.2237 16.0778 2.23665 17.3201 2.28845C18.4704 2.34026 19.0916 2.51725 19.5057 2.67266C20.0578 2.87123 20.4489 3.11298 20.863 3.49718C21.2725 3.8857 21.5302 4.25264 21.7419 4.77067C21.9029 5.15919 22.0962 5.74197 22.1468 6.82119C22.202 7.98675 22.2158 8.33642 22.2158 11.2892C22.2158 14.2419 22.202 14.5916 22.1422 15.7572C22.0824 16.8364 21.8891 17.4192 21.7281 17.8077C21.5072 18.3257 21.2587 18.6926 20.8446 19.0812C20.4351 19.4654 20.0348 19.7071 19.4919 19.9057C19.0778 20.0568 18.4474 20.2381 17.2971 20.2856C16.0456 20.3374 15.6775 20.3503 12.5256 20.3503C9.3738 20.3503 9.0057 20.3374 7.75417 20.2813C6.60387 20.2251 5.9735 20.0438 5.55939 19.8927C5.00264 19.6855 4.61614 19.4524 4.20663 19.0639C3.79252 18.6797 3.53025 18.3041 3.3232 17.7947C3.16215 17.4062 2.9689 16.8148 2.90909 15.7356C2.86307 14.5743 2.84927 14.216 2.84927 11.2762C2.84927 8.3321 2.86307 7.9738 2.90909 6.79961C2.9689 5.72038 3.15755 5.12897 3.3232 4.74045C3.53025 4.21379 3.79252 3.85549 4.20663 3.46697C4.61614 3.08276 5.00264 2.83238 5.55939 2.63812C5.9735 2.48703 6.59006 2.30572 7.74037 2.2496C8.9919 2.20643 9.35999 2.19348 12.5118 2.19348L12.5578 2.2237ZM12.5578 5.60814C9.21736 5.60814 6.50724 8.15079 6.50724 11.2849C6.50724 14.4189 9.21736 16.9616 12.5578 16.9616C15.8983 16.9616 18.6084 14.4189 18.6084 11.2849C18.6084 8.15079 15.8983 5.60814 12.5578 5.60814ZM12.5578 14.9672C10.3907 14.9672 8.633 13.3181 8.633 11.2849C8.633 9.2516 10.3907 7.60255 12.5578 7.60255C14.725 7.60255 16.4827 9.2516 16.4827 11.2849C16.4827 13.3181 14.725 14.9672 12.5578 14.9672ZM20.2603 5.38798C20.2603 6.12185 19.6253 6.71327 18.8477 6.71327C18.0655 6.71327 17.4351 6.11754 17.4351 5.38798C17.4351 4.65843 18.0701 4.0627 18.8477 4.0627C19.6253 4.05838 20.2603 4.65411 20.2603 5.38798Z" fill="white"/>
</svg>
