<svg width="24" height="19" viewBox="0 0 24 19" fill="none" xmlns="http://www.w3.org/2000/svg">
<path d="M23.8624 2.24664C23.0074 2.62411 22.0932 2.87879 21.1291 2.99703C22.1114 2.40581 22.8664 1.4735 23.2211 0.363828C22.3024 0.900474 21.2792 1.29159 20.1968 1.50989C19.3282 0.582125 18.0957 0 16.7222 0C14.0936 0 11.9606 2.13294 11.9606 4.75705C11.9606 5.13452 12.0061 5.49835 12.0834 5.84398C8.1268 5.65752 4.61586 3.75652 2.26918 0.882282C1.85532 1.58265 1.62338 2.39217 1.62338 3.279C1.62338 4.93441 2.46473 6.38973 3.74268 7.24472C2.96045 7.21743 2.22824 7.00369 1.587 6.64895V6.70808C1.587 9.01838 3.22422 10.9421 5.40719 11.3787C5.00698 11.4879 4.58403 11.5424 4.15198 11.5424C3.84728 11.5424 3.55622 11.5152 3.26515 11.4606C3.87457 13.3525 5.63003 14.7305 7.72204 14.7669C6.09846 16.0448 4.03374 16.8043 1.81894 16.8043C1.44147 16.8043 1.06399 16.7816 0.686523 16.7406C2.80582 18.0913 5.30259 18.8781 7.99946 18.8781C16.7541 18.8781 21.543 11.6243 21.543 5.34372C21.543 5.14362 21.543 4.93896 21.5293 4.73431C22.4571 4.06578 23.2711 3.22442 23.9078 2.26938L23.8624 2.24664Z" fill="white"/>
</svg>
